<?xml version="1.0" encoding="utf-8"?>
<!-- Generator: Adobe Illustrator 15.1.0, SVG Export Plug-In . SVG Version: 6.00 Build 0)  -->
<!DOCTYPE svg PUBLIC "-//W3C//DTD SVG 1.1//EN" "http://www.w3.org/Graphics/SVG/1.1/DTD/svg11.dtd">
<svg version="1.1" id="Layer_1" xmlns="http://www.w3.org/2000/svg" xmlns:xlink="http://www.w3.org/1999/xlink" x="0px" y="0px"
	 width="302px" height="55.514px" viewBox="1.5 104 302 55.514" enable-background="new 1.5 104 302 55.514" xml:space="preserve">
<linearGradient id="SVGID_1_" gradientUnits="userSpaceOnUse" x1="6448.0156" y1="-4356.7896" x2="6642.9048" y2="-5462.0635" gradientTransform="matrix(0.0729 0 0 -0.0729 -325.5363 -234.8649)">
	<stop  offset="0" style="stop-color:#E5AE75"/>
	<stop  offset="0.1837" style="stop-color:#E3AF79"/>
	<stop  offset="0.35" style="stop-color:#A7663E"/>
	<stop  offset="0.5562" style="stop-color:#B88151"/>
	<stop  offset="0.6888" style="stop-color:#D29559"/>
	<stop  offset="0.8316" style="stop-color:#A7663E"/>
	<stop  offset="1" style="stop-color:#A7663E"/>
</linearGradient>
<path fill="url(#SVGID_1_)" d="M73.693,109.61h-9.829v11.907h-7.06V109.61h-9.826v29.76h9.826v-14.392h7.06v14.392h9.829V109.61z
	 M66.819,138.913h-2.54v-14.349H49.884v14.349h-2.537v-28.84h2.537v11.908h14.395v-11.908h2.54V138.913z M104.977,136.046H91.182
	v-11.111h11.854v-3.46H91.182v-8.447h13.239v-3.417H81.307v29.76h23.67V136.046z M98.146,138.913H81.813v-28.84h15.779v2.49H84.35
	v9.368h11.858v2.496H84.35v11.988h13.796V138.913L98.146,138.913z M240.489,135.959h-12.551v-26.3h-9.739v29.761h22.29V135.959
	L240.489,135.959z M233.568,138.999H218.57v-28.833h2.54v26.3h12.458V138.999z M263.471,109.338L263.471,109.338h-3.461v19.243
	c0,3.46-1.205,5.809-3.417,6.822c-0.834-0.458-2.911-2.12-2.911-6.736v-19.329h-9.775v19.515c0,6.551,3.732,10.616,9.775,10.616
	c0.05,0,0.05,0,0.1,0h6.593c0.971,0,1.799-0.099,2.627-0.37c0.327-0.05,0.556-0.137,0.834-0.235c0.229-0.05,0.464-0.136,0.648-0.234
	c0.371-0.137,0.643-0.321,0.964-0.507c0.186-0.087,0.371-0.223,0.557-0.371c0.05-0.037,0.093-0.087,0.136-0.087
	c0.143-0.136,0.371-0.234,0.507-0.42c0.05,0,0.05-0.037,0.099-0.086c0.137-0.137,0.365-0.321,0.507-0.507
	c0.043-0.05,0.087-0.099,0.136-0.136l0,0c0.137-0.148,0.321-0.371,0.458-0.557c0.099-0.136,0.234-0.371,0.37-0.556
	c0.05-0.05,0.1-0.137,0.1-0.186c0.086-0.087,0.136-0.186,0.179-0.365c0.043-0.043,0.093-0.142,0.093-0.229
	c0.05-0.099,0.093-0.186,0.136-0.327c0.099-0.18,0.143-0.364,0.235-0.55c0.049-0.05,0.049-0.143,0.093-0.186
	c0.043-0.136,0.092-0.235,0.092-0.42c0.044-0.137,0.087-0.321,0.137-0.507c0-0.044,0.049-0.087,0.049-0.137
	c0-0.049,0-0.092,0.044-0.136c0.043-0.186,0.093-0.37,0.093-0.556c0.049-0.093,0.049-0.186,0.049-0.321
	c0.043-0.136,0.043-0.321,0.087-0.507c0-0.099,0-0.143,0-0.235c0.049-0.229,0.049-0.457,0.049-0.691c0-0.371,0.05-0.692,0.05-1.063
	v-19.743h-6.414v0.093H263.471z M244.314,128.853v-19.058h2.546v18.786c0,1.656,0.222,2.99,0.735,4.152
	c0.136,0.457,0.414,0.828,0.648,1.242c0.321,0.463,0.692,0.834,1.199,1.192c1.1,0.841,2.483,1.298,4.238,1.298
	c0.507,0,0.971-0.05,1.342-0.099h0.092c0.05,0,0.137,0,0.229-0.037h0.043c0.142-0.05,0.234-0.05,0.371-0.1
	c0.142-0.037,0.234-0.037,0.42-0.086c0.136-0.05,0.229-0.099,0.371-0.136c0.043,0,0.043,0,0.086-0.05
	c2.54-1.063,3.924-3.597,3.924-7.335v-18.779h2.54v19.058c0,6.229-3.603,10.146-9.368,10.146
	C247.917,138.913,244.314,135.081,244.314,128.853z M128.969,123.594c-1.292-0.834-2.447-1.428-4.752-2.725
	c-2.54-1.335-4.014-2.583-4.014-4.382c0-1.526,0.507-2.169,0.921-2.49c0.51,0.507,0.924,1.106,1.201,1.613l0.229,0.414l0,0l0,0l0,0
	l0,0h6.043l2.861-1.978c-1.613-3.096-4.06-4.709-7.428-4.709c-3.136,0-2.814,0-6.229,0l0,0c-4.246,0-7.199,2.997-7.199,7.292
	c0,4.609,2.907,6.686,6,8.256l2.123,1.063c3.043,1.521,4.798,2.904,4.798,5.809c0,1.805-0.924,3.324-2.493,4.066l-0.09,0.037
	c-0.046,0-0.093,0.049-0.139,0.049c0,0-0.047,0-0.093,0.05c-2.354-1.063-3.461-4.245-3.461-4.245h-5.49l0,0l0,0l0,0l0,0
	l-2.954,1.712l0.14,0.364c1.245,2.763,3.967,6,9.457,6c0.093,0,0.186,0,0.325,0c1.152,0,4.798,0,5.49,0
	c6.321,0,9.043-4.202,9.043-8.219C133.26,127.562,131.045,124.935,128.969,123.594z M109.404,133.562l2.169-1.248
	c1.152,2.212,2.861,4.523,6.782,4.523c0.463,0,0.924-0.05,1.291-0.1c0.093,0,0.186-0.037,0.232-0.037
	c0.093-0.049,0.231-0.049,0.37-0.099c0.09-0.049,0.229-0.049,0.368-0.086c0.139-0.05,0.231-0.1,0.367-0.148
	c0.047-0.037,0.093-0.037,0.14-0.037h0.046c1.802-0.828,2.814-2.497,2.814-4.523c0-3.09-1.844-4.61-5.029-6.18l-2.123-1.063
	c-2.997-1.521-5.766-3.461-5.766-7.849c0-4.054,2.815-6.821,6.782-6.821c3.047,0,5.397,1.384,6.968,4.195l-2.123,1.385
	c-0.46-0.735-1.017-1.663-1.938-2.262c-0.553-0.371-1.109-0.6-1.708-0.692c-0.414-0.093-0.785-0.093-1.199-0.093
	c-2.583,0-4.292,1.705-4.292,4.288c0,2.497,1.109,3.925,4.246,5.537l2.122,1.063c2.354,1.156,4.014,2.312,5.03,3.646
	c0.738,0.97,1.245,2.169,1.523,3.646c0.043,0.414,0.089,0.828,0.089,1.292c0,4.566-3.229,7.569-8.119,7.569
	C113.143,139.283,110.604,136.193,109.404,133.562z M157.345,123.594c-1.292-0.834-2.444-1.428-4.752-2.725
	c-2.54-1.335-4.014-2.583-4.014-4.382c0-1.526,0.507-2.169,0.921-2.49c0.51,0.507,0.924,1.106,1.201,1.613l0.229,0.414l0,0l0,0l0,0
	l0,0h6.043l2.861-1.978c-1.613-3.096-4.06-4.709-7.428-4.709c-3.136,0-2.814,0-6.229,0l0,0c-4.246,0-7.199,2.997-7.199,7.292
	c0,4.609,2.907,6.686,6,8.256l2.123,1.063c3.043,1.521,4.798,2.904,4.798,5.809c0,1.805-0.924,3.324-2.493,4.066l-0.09,0.037
	c-0.046,0-0.093,0.049-0.139,0.049c0,0-0.047,0-0.093,0.05c-2.354-1.063-3.461-4.245-3.461-4.245h-5.583l0,0l0,0l0,0l0,0
	l-2.954,1.712l0.14,0.364c1.245,2.763,3.967,6,9.457,6c0.093,0,0.186,0,0.325,0c1.152,0,4.798,0,5.49,0
	c6.321,0,9.047-4.202,9.047-8.219C161.547,127.562,159.421,124.935,157.345,123.594z M137.734,133.562l2.169-1.248
	c1.152,2.212,2.86,4.523,6.781,4.523c0.464,0,0.924-0.05,1.292-0.1c0.093,0,0.186-0.037,0.231-0.037
	c0.093-0.049,0.232-0.049,0.371-0.099c0.09-0.049,0.229-0.049,0.367-0.086c0.14-0.05,0.232-0.1,0.371-0.148
	c0.043-0.037,0.09-0.037,0.136-0.037h0.047c1.801-0.828,2.814-2.497,2.814-4.523c0-3.09-1.845-4.61-5.03-6.18l-2.119-1.063
	c-3-1.521-5.769-3.461-5.769-7.849c0-4.054,2.814-6.821,6.782-6.821c3.046,0,5.397,1.384,6.967,4.195l-2.122,1.385
	c-0.461-0.735-1.014-1.663-1.938-2.262c-0.554-0.371-1.109-0.6-1.709-0.692c-0.414-0.093-0.784-0.093-1.198-0.093
	c-2.583,0-4.292,1.705-4.292,4.288c0,2.497,1.109,3.925,4.245,5.537l2.123,1.063c2.354,1.156,4.014,2.312,5.029,3.646
	c0.739,0.97,1.246,2.169,1.523,3.646c0.047,0.414,0.093,0.828,0.093,1.292c0,4.566-3.231,7.569-8.123,7.569
	C141.519,139.283,138.979,136.193,137.734,133.562z M291.197,117.272c0-3.047-1.712-4.659-4.888-4.659h-6.328v9.226h6.649
	C289.671,121.882,291.197,120.362,291.197,117.272z M290.685,117.272c0,3.646-2.256,4.104-4.011,4.104v-8.306
	C289.399,113.213,290.685,114.64,290.685,117.272z M293.181,130.329c0-3.781-2.169-5.95-6.093-5.95h-7.106v11.988h7.243
	C292.396,136.416,293.181,132.635,293.181,130.329z M287.225,135.959h-0.507v-11.123h0.37c3.695,0,5.63,1.891,5.63,5.45
	C292.675,132.912,291.747,135.959,287.225,135.959z M296.549,122.994c1.242,0,3.825-1.983,3.825-5.907
	c0-6.687-5.901-7.378-8.021-7.378c-1.669,0-15.369,0-15.369,0v29.76h16.289c5.123,0,9.09-2.225,9.09-8.769
	C302.45,124.564,296.549,122.994,296.549,122.994z M277.448,110.116h9.084c5.265,0,7.106,3.603,7.106,7.021
	c0,2.119-0.594,3.732-1.792,4.795c-0.371,0.371-0.791,0.6-1.298,0.785l-0.6,0.229l0.6,0.186c3.188,0.97,5.03,3.596,5.03,7.242
	c0,5.265-3.14,8.49-8.213,8.49h-10.054v-28.79h0.136V110.116z M208.931,133.883h-5.63l-0.043-0.05v0.05h-0.186l0.087,0.093
	l-0.136,0.364c-0.05,0.143-0.137,0.328-0.235,0.42c-0.643,1.149-2.947,4.61-7.792,5.624c-8.126-1.892-11.303-8.763-11.303-15.776
	c0-6.964,3.09-14.12,11.024-15.875c5.302,1.063,7.706,4.802,8.169,5.722l0.229,0.464l-0.043,0.043h0.043l0,0l0,0h5.123l2.997-2.299
	c-1.155-1.854-5.03-7.569-13.563-7.569h-5.309c-0.136,0-0.648,0-0.735,0h-0.093c0,0-0.043,0-0.093,0
	c-12.136,0.321-17.673,10.239-17.673,19.558c0,9.418,5.63,19.478,18.044,19.564c-0.099,0-0.186,0-0.186,0h5.117
	c10.431,0,14.769-6.785,15.411-8.021L208.931,133.883z M174.141,124.564c0-9.183,5.536-19.107,17.76-19.107
	c2.496,0,4.615,0.507,6.371,1.199c1.662,0.741,3.417,1.805,4.937,3.324c0.964,1.014,1.656,1.891,2.027,2.583l-1.978,1.619
	c-0.513-0.927-2.954-4.758-8.305-5.858c-0.328-0.049-0.606-0.142-0.977-0.142c-0.643-0.093-1.335-0.143-2.12-0.143
	c-10.425,0-15.183,8.59-15.183,16.567c0,7.292,3.967,15.047,12.6,16.332c0.229,0.05,0.464,0.05,0.692,0.099
	c0.648,0.037,1.292,0.087,1.935,0.087c7.248,0,10.431-4.758,11.259-6.143c0.099-0.13,0.186-0.358,0.234-0.457l1.292,0.977l0.6,0.593
	c-0.464,0.964-1.014,1.755-1.619,2.497c-1.978,2.262-5.766,5.029-11.81,5.029C179.677,143.658,174.141,133.79,174.141,124.564z
	 M31.843,114.875h5.123l3-2.312c-1.155-1.842-5.03-7.563-13.567-7.563h-5.305c-0.139,0-0.646,0-0.738,0h-0.093c0,0-0.046,0-0.093,0
	C8.037,105.321,2.5,115.245,2.5,124.564c0,9.411,5.629,19.465,18.041,19.563c-0.093,0-0.186,0-0.186,0h5.12
	c10.428,0,14.766-6.785,15.412-8.033l-3.09-2.262h-5.722l-0.046-0.043v0.043h-0.185l0.092,0.1l-0.139,0.364
	c-0.046,0.142-0.136,0.327-0.229,0.414c-0.646,1.149-2.954,4.609-7.798,5.636c-8.12-1.903-11.305-8.775-11.305-15.782
	c0-6.971,3.093-14.12,11.027-15.875c5.308,1.063,7.706,4.801,8.169,5.722L31.843,114.875z M2.868,124.564
	c0-9.183,5.537-19.107,17.766-19.107c2.49,0,4.613,0.507,6.365,1.199c1.662,0.741,3.414,1.805,4.937,3.324
	c1.017,1.014,1.663,1.891,2.03,2.583l-1.984,1.619c-0.506-0.927-2.954-4.758-8.305-5.858c-0.321-0.049-0.599-0.142-0.967-0.142
	c-0.646-0.093-1.338-0.143-2.123-0.143c-10.428,0-15.18,8.59-15.18,16.567c0,7.292,3.967,15.047,12.594,16.332
	c0.232,0.05,0.463,0.05,0.692,0.099c0.646,0.037,1.294,0.087,1.94,0.087c7.242,0,10.428-4.758,11.256-6.143
	c0.092-0.13,0.185-0.358,0.231-0.457l1.292,0.977l0.6,0.593c-0.46,0.964-1.014,1.755-1.613,2.497
	c-1.987,2.262-5.769,5.029-11.812,5.029C8.451,143.658,2.868,133.79,2.868,124.564z"/>
<g>
	
		<linearGradient id="SVGID_2_" gradientUnits="userSpaceOnUse" x1="5066.2188" y1="-5059.3164" x2="5517.7227" y2="-4798.6406" gradientTransform="matrix(0.0729 0 0 -0.0729 -325.5363 -234.8649)">
		<stop  offset="0.0051" style="stop-color:#ECB881;stop-opacity:0"/>
		<stop  offset="0.4602" style="stop-color:#E7B37C;stop-opacity:0.0867"/>
		<stop  offset="0.8197" style="stop-color:#A27F56;stop-opacity:0.6949"/>
		<stop  offset="1" style="stop-color:#856846"/>
	</linearGradient>
	<path fill="url(#SVGID_2_)" d="M73.693,109.659h-9.829v11.901h-7.06v-11.901h-9.826v29.761h9.826v-14.398h7.06v14.398h9.829
		V109.659z M66.819,138.962h-2.54v-14.354H49.884v14.354h-2.537v-28.846h2.537v11.908h14.395v-11.908h2.54V138.962z"/>
	
		<linearGradient id="SVGID_3_" gradientUnits="userSpaceOnUse" x1="5531.7715" y1="-5049.5918" x2="5946.2451" y2="-4810.2954" gradientTransform="matrix(0.0729 0 0 -0.0729 -325.5363 -234.8649)">
		<stop  offset="0.0051" style="stop-color:#ECB881;stop-opacity:0"/>
		<stop  offset="0.4602" style="stop-color:#E7B37C;stop-opacity:0.0867"/>
		<stop  offset="0.8197" style="stop-color:#A27F56;stop-opacity:0.6949"/>
		<stop  offset="1" style="stop-color:#856846"/>
	</linearGradient>
	<path fill="url(#SVGID_3_)" d="M104.977,136.046H91.182v-11.111h11.854v-3.46H91.182v-8.447h13.239v-3.417H81.307v29.76h23.67
		V136.046z M98.146,138.962H81.813v-28.846h15.779v2.497H84.35v9.368h11.858v2.49H84.35v11.994h13.796V138.962L98.146,138.962z"/>
	
		<linearGradient id="SVGID_4_" gradientUnits="userSpaceOnUse" x1="7406.7959" y1="-5046.8594" x2="7683.6978" y2="-4886.9893" gradientTransform="matrix(0.0729 0 0 -0.0729 -325.5363 -234.8649)">
		<stop  offset="0.0051" style="stop-color:#ECB881;stop-opacity:0"/>
		<stop  offset="0.4602" style="stop-color:#E7B37C;stop-opacity:0.0867"/>
		<stop  offset="0.8197" style="stop-color:#A27F56;stop-opacity:0.6949"/>
		<stop  offset="1" style="stop-color:#856846"/>
	</linearGradient>
	<path fill="url(#SVGID_4_)" d="M240.489,136.009h-12.551v-26.3h-9.739v29.76h22.29V136.009L240.489,136.009z M233.568,138.999
		H218.57v-28.833h2.54v26.3h12.458V138.999z"/>
	
		<linearGradient id="SVGID_5_" gradientUnits="userSpaceOnUse" x1="7794.8359" y1="-5011.6567" x2="8199.7012" y2="-4777.9077" gradientTransform="matrix(0.0729 0 0 -0.0729 -325.5363 -234.8649)">
		<stop  offset="0.0051" style="stop-color:#ECB881;stop-opacity:0"/>
		<stop  offset="0.4602" style="stop-color:#E7B37C;stop-opacity:0.0867"/>
		<stop  offset="0.8197" style="stop-color:#A27F56;stop-opacity:0.6949"/>
		<stop  offset="1" style="stop-color:#856846"/>
	</linearGradient>
	<path fill="url(#SVGID_5_)" d="M263.471,109.338L263.471,109.338h-3.461v19.243c0,3.46-1.205,5.809-3.417,6.822
		c-0.834-0.458-2.911-2.12-2.911-6.736v-19.329h-9.775v19.515c0,6.551,3.732,10.616,9.775,10.616c0.05,0,0.05,0,0.1,0h6.593
		c0.971,0,1.799-0.099,2.627-0.37c0.327-0.05,0.556-0.137,0.834-0.235c0.229-0.05,0.464-0.136,0.648-0.234
		c0.371-0.137,0.643-0.321,0.964-0.507c0.186-0.087,0.371-0.223,0.557-0.371c0.05-0.037,0.093-0.087,0.136-0.087
		c0.143-0.136,0.371-0.234,0.507-0.42c0.05,0,0.05-0.037,0.099-0.086c0.137-0.137,0.365-0.321,0.507-0.507
		c0.043-0.05,0.087-0.099,0.136-0.136l0,0c0.137-0.148,0.321-0.371,0.458-0.557c0.099-0.136,0.234-0.371,0.37-0.556
		c0.05-0.05,0.1-0.137,0.1-0.186c0.086-0.087,0.136-0.186,0.179-0.365c0.043-0.043,0.093-0.142,0.093-0.229
		c0.05-0.099,0.093-0.186,0.136-0.327c0.099-0.18,0.143-0.364,0.235-0.55c0.049-0.05,0.049-0.143,0.093-0.186
		c0.043-0.136,0.092-0.235,0.092-0.42c0.044-0.137,0.087-0.321,0.137-0.507c0-0.044,0.049-0.087,0.049-0.137
		c0-0.049,0-0.092,0.044-0.136c0.043-0.186,0.093-0.37,0.093-0.556c0.049-0.093,0.049-0.186,0.049-0.321
		c0.043-0.136,0.043-0.321,0.087-0.507c0-0.099,0-0.143,0-0.235c0.049-0.229,0.049-0.457,0.049-0.691c0-0.371,0.05-0.692,0.05-1.063
		v-19.743h-6.414v0.093H263.471z M244.314,128.853v-19.058h2.546v18.786c0,1.656,0.222,2.99,0.735,4.152
		c0.136,0.457,0.414,0.828,0.648,1.242c0.321,0.463,0.692,0.834,1.199,1.192c1.1,0.841,2.483,1.298,4.238,1.298
		c0.507,0,0.971-0.05,1.342-0.099h0.092c0.05,0,0.137,0,0.229-0.037h0.043c0.142-0.05,0.234-0.05,0.371-0.1
		c0.142-0.037,0.234-0.037,0.42-0.086c0.136-0.05,0.229-0.099,0.371-0.136c0.043,0,0.043,0,0.086-0.05
		c2.54-1.063,3.924-3.597,3.924-7.335v-18.779h2.54v19.058c0,6.229-3.603,10.146-9.368,10.146
		C247.917,138.962,244.314,135.131,244.314,128.853z"/>
	
		<linearGradient id="SVGID_6_" gradientUnits="userSpaceOnUse" x1="5945.9707" y1="-5035.5977" x2="6296.2295" y2="-4833.375" gradientTransform="matrix(0.0729 0 0 -0.0729 -325.5363 -234.8649)">
		<stop  offset="0.0051" style="stop-color:#ECB881;stop-opacity:0"/>
		<stop  offset="0.4602" style="stop-color:#E7B37C;stop-opacity:0.0867"/>
		<stop  offset="0.8197" style="stop-color:#A27F56;stop-opacity:0.6949"/>
		<stop  offset="1" style="stop-color:#856846"/>
	</linearGradient>
	<path fill="url(#SVGID_6_)" d="M128.969,123.594c-1.292-0.834-2.447-1.428-4.752-2.725c-2.54-1.335-4.014-2.583-4.014-4.382
		c0-1.526,0.507-2.169,0.921-2.49c0.51,0.507,0.924,1.106,1.201,1.613l0.229,0.414l0,0l0,0l0,0l0,0h6.043l2.861-1.978
		c-1.613-3.096-4.06-4.709-7.428-4.709c-3.136,0-2.814,0-6.229,0l0,0c-4.246,0-7.199,2.997-7.199,7.292c0,4.609,2.907,6.686,6,8.256
		l2.123,1.063c3.043,1.521,4.798,2.904,4.798,5.809c0,1.805-0.924,3.324-2.493,4.066l-0.09,0.037c-0.046,0-0.093,0.049-0.139,0.049
		c0,0-0.047,0-0.093,0.05c-2.354-1.063-3.461-4.245-3.461-4.245h-5.49l0,0l0,0l0,0l0,0l-2.954,1.712l0.14,0.364
		c1.245,2.763,3.967,6,9.457,6c0.093,0,0.186,0,0.325,0c1.152,0,4.798,0,5.49,0c6.321,0,9.043-4.202,9.043-8.219
		C133.26,127.562,131.045,124.979,128.969,123.594z M109.404,133.604l2.169-1.242c1.152,2.213,2.861,4.523,6.782,4.523
		c0.463,0,0.924-0.049,1.291-0.099c0.093,0,0.186-0.05,0.232-0.05c0.093-0.037,0.231-0.037,0.37-0.086
		c0.09-0.05,0.229-0.05,0.368-0.099c0.093-0.037,0.231-0.087,0.367-0.137c0.047-0.049,0.093-0.049,0.14-0.049h0.046
		c1.802-0.828,2.814-2.484,2.814-4.512c0-3.096-1.844-4.615-5.029-6.186l-2.123-1.063c-2.997-1.521-5.766-3.461-5.766-7.842
		c0-4.06,2.815-6.828,6.782-6.828c3.047,0,5.397,1.384,6.968,4.195l-2.123,1.385c-0.46-0.735-1.017-1.656-1.938-2.262
		c-0.553-0.371-1.109-0.594-1.708-0.692c-0.414-0.086-0.785-0.086-1.199-0.086c-2.583,0-4.292,1.705-4.292,4.288
		c0,2.49,1.109,3.918,4.246,5.537l2.122,1.063c2.354,1.149,4.014,2.305,5.03,3.646c0.738,0.965,1.245,2.163,1.523,3.646
		c0.043,0.407,0.089,0.828,0.089,1.285c0,4.573-3.229,7.563-8.119,7.563C113.143,139.32,110.604,136.193,109.404,133.604z"/>
	
		<linearGradient id="SVGID_7_" gradientUnits="userSpaceOnUse" x1="6334.6465" y1="-5035.5117" x2="6685.2632" y2="-4833.0825" gradientTransform="matrix(0.0729 0 0 -0.0729 -325.5363 -234.8649)">
		<stop  offset="0.0051" style="stop-color:#ECB881;stop-opacity:0"/>
		<stop  offset="0.4602" style="stop-color:#E7B37C;stop-opacity:0.0867"/>
		<stop  offset="0.8197" style="stop-color:#A27F56;stop-opacity:0.6949"/>
		<stop  offset="1" style="stop-color:#856846"/>
	</linearGradient>
	<path fill="url(#SVGID_7_)" d="M157.345,123.594c-1.292-0.834-2.444-1.428-4.752-2.725c-2.54-1.335-4.014-2.583-4.014-4.382
		c0-1.526,0.507-2.169,0.921-2.49c0.51,0.507,0.924,1.106,1.201,1.613l0.229,0.414l0,0l0,0l0,0l0,0h6.043l2.861-1.978
		c-1.613-3.096-4.06-4.709-7.428-4.709c-3.136,0-2.814,0-6.229,0l0,0c-4.246,0-7.199,2.997-7.199,7.292c0,4.609,2.907,6.686,6,8.256
		l2.123,1.063c3.043,1.521,4.798,2.904,4.798,5.809c0,1.805-0.924,3.324-2.493,4.066l-0.09,0.037c-0.046,0-0.093,0.049-0.139,0.049
		c0,0-0.047,0-0.093,0.05c-2.354-1.063-3.461-4.245-3.461-4.245h-5.583l0,0l0,0l0,0l0,0l-2.954,1.712l0.14,0.364
		c1.245,2.763,3.967,6,9.457,6c0.093,0,0.186,0,0.325,0c1.152,0,4.798,0,5.49,0c6.321,0,9.047-4.202,9.047-8.219
		C161.547,127.562,159.421,124.979,157.345,123.594z M137.734,133.604l2.169-1.242c1.152,2.213,2.86,4.523,6.781,4.523
		c0.464,0,0.924-0.049,1.292-0.099c0.093,0,0.186-0.05,0.231-0.05c0.093-0.037,0.232-0.037,0.371-0.086
		c0.09-0.05,0.229-0.05,0.367-0.099c0.093-0.037,0.232-0.087,0.371-0.137c0.043-0.049,0.09-0.049,0.136-0.049h0.047
		c1.801-0.828,2.814-2.484,2.814-4.512c0-3.096-1.845-4.615-5.03-6.186l-2.119-1.063c-3-1.521-5.769-3.461-5.769-7.842
		c0-4.06,2.814-6.828,6.782-6.828c3.046,0,5.397,1.384,6.967,4.195l-2.122,1.385c-0.461-0.735-1.014-1.656-1.938-2.262
		c-0.554-0.371-1.109-0.594-1.709-0.692c-0.414-0.086-0.784-0.086-1.198-0.086c-2.583,0-4.292,1.705-4.292,4.288
		c0,2.49,1.109,3.918,4.245,5.537l2.123,1.063c2.354,1.149,4.014,2.305,5.029,3.646c0.739,0.965,1.246,2.163,1.523,3.646
		c0.047,0.407,0.093,0.828,0.093,1.285c0,4.573-3.231,7.563-8.123,7.563C141.519,139.32,138.979,136.193,137.734,133.604z"/>
	
		<linearGradient id="SVGID_8_" gradientUnits="userSpaceOnUse" x1="8208.416" y1="-5038.9307" x2="8595.6816" y2="-4815.3433" gradientTransform="matrix(0.0729 0 0 -0.0729 -325.5363 -234.8649)">
		<stop  offset="0.0051" style="stop-color:#ECB881;stop-opacity:0"/>
		<stop  offset="0.4602" style="stop-color:#E7B37C;stop-opacity:0.0867"/>
		<stop  offset="0.8197" style="stop-color:#A27F56;stop-opacity:0.6949"/>
		<stop  offset="1" style="stop-color:#856846"/>
	</linearGradient>
	<path fill="url(#SVGID_8_)" d="M291.197,117.322c0-3.053-1.712-4.66-4.888-4.66h-6.328v9.22h6.649
		C289.671,121.882,291.197,120.411,291.197,117.322z M290.685,117.322c0,3.646-2.256,4.103-4.011,4.103v-8.305
		C289.399,113.256,290.685,114.64,290.685,117.322z M293.181,130.373c0-3.782-2.169-5.945-6.093-5.945h-7.106v11.988h7.243
		C292.396,136.466,293.181,132.635,293.181,130.373z M287.225,136.009h-0.507v-11.123h0.37c3.695,0,5.63,1.891,5.63,5.443
		C292.675,132.956,291.747,136.009,287.225,136.009z M296.549,122.994c1.242,0,3.825-1.983,3.825-5.907
		c0-6.687-5.901-7.378-8.021-7.378c-1.669,0-15.369,0-15.369,0v29.76h16.289c5.123,0,9.09-2.225,9.09-8.769
		C302.45,124.607,296.549,122.994,296.549,122.994z M277.448,110.166h9.084c5.265,0,7.106,3.597,7.106,7.014
		c0,2.119-0.594,3.738-1.792,4.802c-0.371,0.37-0.791,0.593-1.298,0.778l-0.6,0.234l0.6,0.186c3.188,0.964,5.03,3.597,5.03,7.242
		c0,5.253-3.14,8.491-8.213,8.491h-10.054v-28.797h0.136V110.166z"/>
	
		<linearGradient id="SVGID_9_" gradientUnits="userSpaceOnUse" x1="6882.3398" y1="-5075.2129" x2="7375.2612" y2="-4790.6245" gradientTransform="matrix(0.0729 0 0 -0.0729 -325.5363 -234.8649)">
		<stop  offset="0.0051" style="stop-color:#ECB881;stop-opacity:0"/>
		<stop  offset="0.4602" style="stop-color:#E7B37C;stop-opacity:0.0867"/>
		<stop  offset="0.8197" style="stop-color:#A27F56;stop-opacity:0.6949"/>
		<stop  offset="1" style="stop-color:#856846"/>
	</linearGradient>
	<path fill="url(#SVGID_9_)" d="M208.931,133.933h-5.63l-0.043-0.05v0.05h-0.186l0.087,0.086l-0.136,0.371
		c-0.05,0.136-0.137,0.321-0.235,0.42c-0.643,1.149-2.947,4.61-7.792,5.623c-8.126-1.891-11.303-8.762-11.303-15.782
		c0-6.964,3.09-14.113,11.024-15.868c5.302,1.063,7.706,4.795,8.169,5.722l0.229,0.457l-0.043,0.05h0.043l0,0l0,0h5.123l2.997-2.305
		c-1.155-1.848-5.03-7.57-13.563-7.57h-5.309c-0.136,0-0.648,0-0.735,0h-0.093c0,0-0.043,0-0.093,0
		c-12.136,0.321-17.673,10.246-17.673,19.564c0,9.417,5.63,19.465,18.044,19.564c-0.099,0-0.186,0-0.186,0h5.117
		c10.431,0,14.769-6.785,15.411-8.034L208.931,133.933z M174.141,124.607c0-9.177,5.536-19.101,17.76-19.101
		c2.496,0,4.615,0.507,6.371,1.198c1.662,0.742,3.417,1.805,4.937,3.325c0.964,1.014,1.656,1.891,2.027,2.583l-1.978,1.612
		c-0.513-0.921-2.954-4.752-8.305-5.857c-0.328-0.044-0.606-0.143-0.977-0.143c-0.643-0.087-1.335-0.136-2.12-0.136
		c-10.425,0-15.183,8.583-15.183,16.561c0,7.292,3.967,15.041,12.6,16.339c0.229,0.049,0.464,0.049,0.692,0.086
		c0.648,0.05,1.292,0.1,1.935,0.1c7.248,0,10.431-4.759,11.259-6.143c0.099-0.136,0.186-0.364,0.234-0.457l1.292,0.964l0.6,0.605
		c-0.464,0.964-1.014,1.755-1.619,2.484c-1.978,2.262-5.766,5.029-11.81,5.029C179.677,143.708,174.141,133.79,174.141,124.607z"/>
	
		<linearGradient id="SVGID_10_" gradientUnits="userSpaceOnUse" x1="4533.5088" y1="-5073.9517" x2="5026.4282" y2="-4789.3638" gradientTransform="matrix(0.0729 0 0 -0.0729 -325.5363 -234.8649)">
		<stop  offset="0.0051" style="stop-color:#ECB881;stop-opacity:0"/>
		<stop  offset="0.4602" style="stop-color:#E7B37C;stop-opacity:0.0867"/>
		<stop  offset="0.8197" style="stop-color:#A27F56;stop-opacity:0.6949"/>
		<stop  offset="1" style="stop-color:#856846"/>
	</linearGradient>
	<path fill="url(#SVGID_10_)" d="M31.843,114.918h5.123l3-2.305c-1.155-1.848-5.03-7.563-13.567-7.563h-5.305
		c-0.139,0-0.646,0-0.738,0h-0.093c0,0-0.046,0-0.093,0C8.037,105.371,2.5,115.289,2.5,124.607c0,9.411,5.629,19.472,18.041,19.558
		c-0.093,0-0.186,0-0.186,0h5.12c10.428,0,14.766-6.772,15.412-8.021l-3.09-2.262h-5.722l-0.046-0.05v0.05h-0.185l0.092,0.093
		l-0.139,0.364c-0.046,0.143-0.136,0.328-0.229,0.42c-0.646,1.149-2.954,4.61-7.798,5.624c-8.12-1.892-11.305-8.763-11.305-15.776
		c0-6.964,3.093-14.12,11.027-15.875c5.308,1.063,7.706,4.802,8.169,5.722L31.843,114.918z M2.868,124.607
		c0-9.177,5.537-19.101,17.766-19.101c2.49,0,4.613,0.507,6.365,1.198c1.662,0.742,3.414,1.805,4.937,3.325
		c1.017,1.014,1.663,1.891,2.03,2.583l-1.984,1.612c-0.506-0.921-2.954-4.752-8.305-5.857c-0.321-0.044-0.599-0.143-0.967-0.143
		c-0.646-0.087-1.338-0.136-2.123-0.136c-10.428,0-15.18,8.583-15.18,16.561c0,7.292,3.967,15.041,12.594,16.339
		c0.232,0.049,0.463,0.049,0.692,0.086c0.646,0.05,1.294,0.1,1.94,0.1c7.242,0,10.428-4.759,11.256-6.143
		c0.092-0.136,0.185-0.364,0.231-0.457l1.292,0.964l0.6,0.605c-0.46,0.964-1.014,1.755-1.613,2.484
		c-1.987,2.262-5.769,5.029-11.812,5.029C8.451,143.708,2.868,133.79,2.868,124.607z"/>
</g>
<g>
	<g>
		<polygon fill="none" stroke="#6D4C3A" stroke-width="0.5" stroke-miterlimit="10" points="73.832,109.659 63.958,109.659 
			63.958,121.561 56.897,121.561 56.897,109.659 47.069,109.659 47.069,139.42 56.897,139.42 56.897,125.021 63.958,125.021 
			63.958,139.42 73.832,139.42 		"/>
		<polygon fill="none" stroke="#6D4C3A" stroke-width="0.5" stroke-miterlimit="10" points="66.958,138.962 64.418,138.962 
			64.418,124.607 50.023,124.607 50.023,138.962 47.44,138.962 47.44,110.116 50.023,110.116 50.023,122.024 64.418,122.024 
			64.418,110.116 66.958,110.116 		"/>
	</g>
	<g>
		<polygon fill="none" stroke="#6D4C3A" stroke-width="0.5" stroke-miterlimit="10" points="105.112,136.046 91.317,136.046 
			91.317,124.979 103.176,124.979 103.176,121.518 91.317,121.518 91.317,113.07 104.56,113.07 104.56,109.659 81.445,109.659 
			81.445,139.42 105.112,139.42 		"/>
		<polygon fill="none" stroke="#6D4C3A" stroke-width="0.5" stroke-miterlimit="10" points="98.284,138.962 81.906,138.962 
			81.906,110.116 97.731,110.116 97.731,112.613 84.442,112.613 84.442,121.981 96.301,121.981 96.301,124.472 84.442,124.472 
			84.442,136.466 98.284,136.466 		"/>
	</g>
	<g>
		<polygon fill="none" stroke="#6D4C3A" stroke-width="0.5" stroke-miterlimit="10" points="240.631,136.009 228.074,136.009 
			228.074,109.709 218.299,109.709 218.299,139.469 240.631,139.469 		"/>
		<polygon fill="none" stroke="#6D4C3A" stroke-width="0.5" stroke-miterlimit="10" points="233.71,138.999 218.706,138.999 
			218.706,110.166 221.252,110.166 221.252,136.466 233.71,136.466 		"/>
	</g>
	<g>
		<path fill="none" stroke="#6D4C3A" stroke-width="0.5" stroke-miterlimit="10" d="M263.606,109.381L263.606,109.381h-3.461v19.243
			c0,3.461-1.198,5.814-3.417,6.828c-0.828-0.47-2.904-2.126-2.904-6.735v-19.336h-9.782v19.521c0,6.55,3.732,10.604,9.782,10.604
			c0.043,0,0.043,0,0.093,0h6.6c0.964,0,1.792-0.086,2.626-0.371c0.328-0.036,0.55-0.136,0.834-0.222
			c0.229-0.05,0.458-0.137,0.644-0.235c0.37-0.136,0.643-0.321,0.97-0.507c0.18-0.086,0.364-0.234,0.55-0.37
			c0.05-0.05,0.099-0.087,0.143-0.087c0.136-0.136,0.364-0.234,0.507-0.42c0.043,0,0.043-0.05,0.093-0.087
			c0.136-0.148,0.37-0.321,0.506-0.507c0.05-0.049,0.093-0.099,0.137-0.147l0,0c0.142-0.137,0.321-0.359,0.463-0.544
			c0.093-0.148,0.229-0.371,0.371-0.557c0.043-0.049,0.093-0.136,0.093-0.186c0.086-0.099,0.136-0.186,0.186-0.37
			c0.043-0.044,0.086-0.137,0.086-0.229c0.05-0.093,0.099-0.186,0.143-0.328c0.093-0.179,0.142-0.364,0.229-0.55
			c0.049-0.043,0.049-0.143,0.093-0.186c0.043-0.136,0.093-0.229,0.093-0.414c0.049-0.136,0.093-0.321,0.136-0.507
			c0-0.049,0.05-0.093,0.05-0.136c0-0.05,0-0.099,0.049-0.142c0.043-0.186,0.087-0.365,0.087-0.551
			c0.049-0.099,0.049-0.185,0.049-0.327c0.05-0.136,0.05-0.321,0.093-0.507c0-0.093,0-0.142,0-0.229
			c0.044-0.234,0.044-0.464,0.044-0.692c0-0.37,0.049-0.691,0.049-1.063v-19.75h-6.414v0.093H263.606z"/>
		<path fill="none" stroke="#6D4C3A" stroke-width="0.5" stroke-miterlimit="10" d="M244.456,128.853v-19.058h2.54v18.786
			c0,1.656,0.229,2.99,0.735,4.152c0.142,0.457,0.414,0.828,0.648,1.242c0.321,0.463,0.692,0.834,1.199,1.192
			c1.105,0.841,2.49,1.298,4.245,1.298c0.507,0,0.97-0.05,1.341-0.099h0.087c0.049,0,0.136,0,0.234-0.037h0.043
			c0.143-0.05,0.229-0.05,0.371-0.1c0.136-0.037,0.229-0.037,0.414-0.086c0.136-0.05,0.235-0.099,0.371-0.136
			c0.043,0,0.043,0,0.086-0.05c2.546-1.063,3.931-3.597,3.931-7.335v-18.779h2.533v19.058c0,6.229-3.597,10.146-9.368,10.146
			C248.059,138.962,244.456,135.131,244.456,128.853z"/>
	</g>
	<g>
		<path fill="none" stroke="#6D4C3A" stroke-width="0.5" stroke-miterlimit="10" d="M129.107,123.594
			c-1.291-0.834-2.447-1.428-4.752-2.725c-2.54-1.335-4.017-2.583-4.017-4.382c0-1.526,0.51-2.169,0.924-2.49
			c0.507,0.507,0.924,1.106,1.199,1.613l0.231,0.414l0,0l0,0l0,0l0,0h6.043l2.861-1.978c-1.615-3.096-4.06-4.709-7.428-4.709
			c-3.139,0-2.814,0-6.229,0l0,0c-4.245,0-7.199,2.997-7.199,7.292c0,4.609,2.907,6.686,6,8.256l2.123,1.063
			c3.043,1.521,4.798,2.904,4.798,5.809c0,1.805-0.924,3.324-2.493,4.066l-0.093,0.037c-0.046,0-0.093,0.049-0.136,0.049
			c0,0-0.046,0-0.093,0.05c-2.354-1.063-3.46-4.245-3.46-4.245h-5.491l0,0l0,0l0,0l0,0l-2.953,1.712l0.139,0.364
			c1.245,2.763,3.967,6,9.458,6c0.093,0,0.186,0,0.324,0c1.152,0,4.798,0,5.49,0c6.318,0,9.044-4.202,9.044-8.219
			C133.307,127.518,131.184,124.979,129.107,123.594z"/>
		<path fill="none" stroke="#6D4C3A" stroke-width="0.5" stroke-miterlimit="10" d="M109.497,133.604l2.169-1.242
			c1.152,2.213,2.861,4.523,6.782,4.523c0.46,0,0.924-0.049,1.291-0.099c0.093,0,0.186-0.05,0.232-0.05
			c0.092-0.037,0.231-0.037,0.367-0.086c0.093-0.05,0.231-0.05,0.371-0.099c0.093-0.037,0.231-0.087,0.367-0.137
			c0.047-0.049,0.093-0.049,0.14-0.049h0.046c1.798-0.828,2.814-2.484,2.814-4.512c0-3.096-1.844-4.615-5.029-6.186l-2.123-1.063
			c-2.997-1.521-5.766-3.461-5.766-7.842c0-4.06,2.814-6.828,6.782-6.828c3.043,0,5.397,1.384,6.967,4.195l-2.122,1.385
			c-0.461-0.735-1.017-1.656-1.938-2.262c-0.556-0.371-1.109-0.594-1.709-0.692c-0.413-0.086-0.784-0.086-1.198-0.086
			c-2.583,0-4.292,1.705-4.292,4.288c0,2.49,1.106,3.918,4.245,5.537l2.123,1.063c2.352,1.149,4.014,2.305,5.03,3.646
			c0.738,0.965,1.245,2.163,1.52,3.646c0.047,0.407,0.093,0.828,0.093,1.285c0,4.573-3.229,7.563-8.119,7.563
			C113.282,139.32,110.696,136.23,109.497,133.604z"/>
	</g>
	<g>
		<path fill="none" stroke="#6D4C3A" stroke-width="0.5" stroke-miterlimit="10" d="M157.48,123.594
			c-1.285-0.834-2.444-1.428-4.749-2.725c-2.54-1.335-4.017-2.583-4.017-4.382c0-1.526,0.51-2.169,0.924-2.49
			c0.507,0.507,0.924,1.106,1.199,1.613l0.231,0.414l0,0l0,0l0,0l0,0h6.04l2.867-1.978c-1.618-3.096-4.065-4.709-7.431-4.709
			c-3.136,0-2.814,0-6.229,0l0,0c-4.245,0-7.199,2.997-7.199,7.292c0,4.609,2.907,6.686,6,8.256l2.123,1.063
			c3.043,1.521,4.798,2.904,4.798,5.809c0,1.805-0.924,3.324-2.493,4.066l-0.093,0.037c-0.043,0-0.093,0.049-0.136,0.049
			c0,0-0.046,0-0.093,0.05c-2.354-1.063-3.46-4.245-3.46-4.245h-5.491l0,0l0,0l0,0l0,0l-2.953,1.712l0.139,0.364
			c1.245,2.763,3.968,6,9.458,6c0.093,0,0.186,0,0.324,0c1.152,0,4.798,0,5.49,0c6.318,0,9.044-4.202,9.044-8.219
			C161.683,127.518,159.557,124.979,157.48,123.594z"/>
		<path fill="none" stroke="#6D4C3A" stroke-width="0.5" stroke-miterlimit="10" d="M137.873,133.604l2.169-1.242
			c1.152,2.213,2.861,4.523,6.782,4.523c0.46,0,0.924-0.049,1.291-0.099c0.093,0,0.186-0.05,0.232-0.05
			c0.093-0.037,0.231-0.037,0.367-0.086c0.093-0.05,0.231-0.05,0.371-0.099c0.093-0.037,0.231-0.087,0.367-0.137
			c0.047-0.049,0.093-0.049,0.14-0.049h0.046c1.798-0.828,2.814-2.484,2.814-4.512c0-3.096-1.844-4.615-5.029-6.186l-2.123-1.063
			c-2.997-1.521-5.766-3.461-5.766-7.842c0-4.06,2.815-6.828,6.782-6.828c3.043,0,5.397,1.384,6.967,4.195l-2.122,1.385
			c-0.461-0.735-1.017-1.656-1.938-2.262c-0.556-0.371-1.109-0.594-1.708-0.692c-0.414-0.086-0.785-0.086-1.199-0.086
			c-2.583,0-4.292,1.705-4.292,4.288c0,2.49,1.106,3.918,4.245,5.537l2.123,1.063c2.352,1.149,4.014,2.305,5.03,3.646
			c0.738,0.965,1.245,2.163,1.52,3.646c0.047,0.407,0.093,0.828,0.093,1.285c0,4.573-3.229,7.563-8.119,7.563
			C141.658,139.32,139.118,136.23,137.873,133.604z"/>
	</g>
	<g>
		<g>
			<path fill="none" stroke="#6D4C3A" stroke-width="0.5" stroke-miterlimit="10" d="M291.333,117.322
				c0-3.053-1.705-4.66-4.888-4.66h-6.321v9.22h6.643C289.813,121.932,291.333,120.411,291.333,117.322z"/>
			<path fill="none" stroke="#6D4C3A" stroke-width="0.5" stroke-miterlimit="10" d="M290.827,117.322
				c0,3.646-2.262,4.103-4.011,4.103v-8.305C289.535,113.256,290.827,114.689,290.827,117.322z"/>
		</g>
		<g>
			<path fill="none" stroke="#6D4C3A" stroke-width="0.5" stroke-miterlimit="10" d="M293.317,130.373
				c0-3.782-2.163-5.945-6.093-5.945h-7.101v11.988h7.242C292.538,136.466,293.317,132.684,293.317,130.373z"/>
			<path fill="none" stroke="#6D4C3A" stroke-width="0.5" stroke-miterlimit="10" d="M287.366,136.009h-0.507v-11.123h0.365
				c3.694,0,5.635,1.891,5.635,5.443C292.811,132.956,291.89,136.009,287.366,136.009z"/>
		</g>
		<g>
			<path fill="none" stroke="#6D4C3A" stroke-width="0.5" stroke-miterlimit="10" d="M296.691,122.994
				c1.241,0,3.824-1.983,3.824-5.907c0-6.687-5.901-7.378-8.026-7.378c-1.662,0-15.362,0-15.362,0v29.76h16.283
				c5.122,0,9.09-2.225,9.09-8.769C302.549,124.607,296.691,122.994,296.691,122.994z"/>
			<path fill="none" stroke="#6D4C3A" stroke-width="0.5" stroke-miterlimit="10" d="M277.584,110.166h9.09
				c5.259,0,7.106,3.597,7.106,7.014c0,2.119-0.6,3.738-1.798,4.802c-0.371,0.37-0.785,0.593-1.298,0.778l-0.593,0.234l0.593,0.186
				c3.188,0.964,5.03,3.597,5.03,7.242c0,5.253-3.133,8.491-8.206,8.491h-10.061v-28.797h0.136V110.166z"/>
		</g>
	</g>
	<g>
		<path fill="none" stroke="#6D4C3A" stroke-width="0.5" stroke-miterlimit="10" d="M209.066,133.933h-5.629l-0.044-0.05v0.05
			h-0.186l0.093,0.086l-0.142,0.371c-0.044,0.136-0.136,0.321-0.229,0.42c-0.649,1.149-2.954,4.61-7.799,5.623
			c-8.12-1.891-11.302-8.762-11.302-15.782c0-6.964,3.089-14.113,11.023-15.868c5.309,1.063,7.712,4.795,8.17,5.722l0.234,0.457
			l-0.05,0.05h0.05l0,0l0,0h5.116l3.004-2.305c-1.156-1.848-5.03-7.57-13.57-7.57h-5.302c-0.143,0-0.649,0-0.742,0h-0.093
			c0,0-0.043,0-0.092,0c-12.137,0.321-17.674,10.246-17.674,19.564c0,9.417,5.636,19.465,18.044,19.564c-0.093,0-0.186,0-0.186,0
			h5.123c10.425,0,14.763-6.785,15.412-8.034L209.066,133.933z"/>
		<path fill="none" stroke="#6D4C3A" stroke-width="0.5" stroke-miterlimit="10" d="M174.276,124.607
			c0-9.177,5.536-19.101,17.766-19.101c2.49,0,4.616,0.507,6.371,1.198c1.656,0.742,3.411,1.805,4.932,3.325
			c0.97,1.014,1.662,1.891,2.032,2.583l-1.983,1.612c-0.507-0.921-2.953-4.752-8.305-5.857c-0.321-0.044-0.605-0.143-0.971-0.143
			c-0.648-0.087-1.341-0.136-2.119-0.136c-10.431,0-15.183,8.583-15.183,16.561c0,7.292,3.967,15.041,12.6,16.339
			c0.223,0.049,0.457,0.049,0.692,0.086c0.643,0.05,1.285,0.1,1.934,0.1c7.242,0,10.425-4.759,11.259-6.143
			c0.093-0.136,0.18-0.364,0.229-0.457l1.292,0.964l0.6,0.605c-0.458,0.964-1.014,1.755-1.613,2.484
			c-1.983,2.262-5.766,5.029-11.809,5.029C179.813,143.708,174.276,133.833,174.276,124.607z"/>
	</g>
	<g>
		<path fill="none" stroke="#6D4C3A" stroke-width="0.5" stroke-miterlimit="10" d="M31.982,114.918h5.123l2.997-2.305
			c-1.153-1.848-5.027-7.563-13.564-7.563h-5.305c-0.139,0-0.646,0-0.738,0h-0.093c0,0-0.046,0-0.093,0
			c-12.136,0.321-17.673,10.239-17.673,19.558c0,9.411,5.63,19.472,18.041,19.558c-0.089,0-0.182,0-0.182,0h5.12
			c10.428,0,14.766-6.772,15.412-8.021l-3.093-2.262h-5.719l-0.046-0.05v0.05h-0.186l0.093,0.093l-0.139,0.364
			c-0.046,0.143-0.139,0.328-0.231,0.42c-0.646,1.149-2.951,4.61-7.795,5.624c-8.123-1.892-11.305-8.763-11.305-15.776
			c0-6.964,3.093-14.12,11.027-15.875c5.305,1.063,7.706,4.802,8.167,5.722L31.982,114.918z"/>
		<path fill="none" stroke="#6D4C3A" stroke-width="0.5" stroke-miterlimit="10" d="M3.007,124.607
			c0-9.177,5.537-19.101,17.763-19.101c2.493,0,4.616,0.507,6.368,1.198c1.663,0.742,3.415,1.805,4.938,3.325
			c1.017,1.014,1.663,1.891,2.03,2.583l-1.984,1.612c-0.507-0.921-2.954-4.752-8.305-5.857c-0.324-0.044-0.599-0.143-0.97-0.143
			c-0.646-0.087-1.338-0.136-2.123-0.136c-10.425,0-15.18,8.583-15.18,16.561c0,7.292,3.97,15.041,12.597,16.339
			c0.232,0.049,0.463,0.049,0.692,0.086c0.646,0.05,1.292,0.1,1.938,0.1c7.246,0,10.428-4.759,11.259-6.143
			c0.093-0.136,0.186-0.364,0.232-0.457l1.292,0.964l0.599,0.605c-0.46,0.964-1.013,1.755-1.616,2.484
			c-1.983,2.262-5.766,5.029-11.812,5.029C8.543,143.708,3.007,133.833,3.007,124.607z"/>
	</g>
</g>
<linearGradient id="SVGID_11_" gradientUnits="userSpaceOnUse" x1="5072.6846" y1="-5349.9946" x2="8054.3291" y2="-5349.9946" gradientTransform="matrix(0.0729 0 0 -0.0729 -325.5363 -234.8649)">
	<stop  offset="0" style="stop-color:#E5AE75"/>
	<stop  offset="0.35" style="stop-color:#A7663E"/>
	<stop  offset="0.5562" style="stop-color:#B88151"/>
	<stop  offset="0.6888" style="stop-color:#D29559"/>
	<stop  offset="0.8316" style="stop-color:#A7663E"/>
	<stop  offset="1" style="stop-color:#A7663E"/>
</linearGradient>
<path fill="url(#SVGID_11_)" d="M51.821,153.583l-0.921,0.37c-0.599-0.643-1.523-1.013-2.583-1.013
	c-0.831,0-1.569,0.186-2.033,0.643c-0.553,0.457-0.782,1.014-0.782,1.656c0,0.691,0.229,1.248,0.782,1.668
	c0.51,0.408,1.248,0.643,2.123,0.643c1.109,0,1.894-0.37,2.54-1.014l0.828,0.507c-0.46,0.507-0.967,0.927-1.52,1.112
	c-0.556,0.223-1.202,0.358-1.984,0.358c-1.109,0-1.94-0.222-2.725-0.778c-0.782-0.605-1.199-1.384-1.199-2.397
	s0.417-1.805,1.245-2.397c0.692-0.557,1.616-0.791,2.632-0.791C49.884,151.964,51.04,152.52,51.821,153.583z M61.928,158.292h-1.017
	v-2.72H56.02v2.72h-1.013v-6.094h1.013v2.447h4.891v-2.447h1.017V158.292z M71.892,158.292h-6.364v-6.094h6.136v0.928h-5.169v1.569
	h3.553v0.914h-3.553v1.805h5.352v0.878H71.892z M80.614,153.632c-0.924-0.47-1.801-0.691-2.769-0.691
	c-0.6,0-1.109,0.037-1.431,0.186c-0.367,0.136-0.506,0.37-0.506,0.593c0,0.234,0.182,0.47,0.553,0.605
	c0.231,0.087,0.646,0.136,1.245,0.186c0.831,0.037,1.384,0.087,1.662,0.136c0.738,0.087,1.338,0.321,1.706,0.557
	c0.37,0.222,0.553,0.643,0.553,1.149c0,0.643-0.321,1.149-0.828,1.52c-0.557,0.371-1.384,0.557-2.447,0.557
	c-1.569,0-2.769-0.371-3.6-1.063l0.557-0.741c0.967,0.605,1.983,0.841,3.09,0.841c0.691,0,1.245-0.1,1.662-0.334
	c0.414-0.173,0.553-0.457,0.553-0.778c0-0.421-0.231-0.643-0.738-0.742c-0.231-0.037-0.971-0.136-2.123-0.186
	c-1.013-0.037-1.705-0.185-2.122-0.407c-0.461-0.235-0.692-0.655-0.692-1.199c0-0.556,0.231-1.014,0.785-1.347
	c0.553-0.358,1.291-0.507,2.262-0.507c1.291,0,2.397,0.321,3.321,0.927L80.614,153.632z M90.304,153.076h-2.907v5.216H86.38v-5.216
	h-2.904v-0.927h6.874v0.927H90.304z M99.348,158.292h-6.368v-6.094h6.136v0.928h-5.166v1.569H97.5v0.914h-3.551v1.805h5.352v0.878
	H99.348z M109.312,158.292h-1.152l-1.659-2.312h-3.093v2.312h-1.017v-6.094h4.802c0.646,0,1.152,0.137,1.52,0.507
	c0.371,0.371,0.557,0.791,0.557,1.385c0,0.507-0.139,0.964-0.464,1.248c-0.229,0.321-0.646,0.507-1.152,0.556L109.312,158.292z
	 M107.053,155.054c0.782,0,1.153-0.321,1.153-0.964s-0.414-1.014-1.246-1.014h-3.553v1.94h3.646V155.054z M118.727,153.076h-5.17
	v1.569h3.554v0.927h-3.554v2.72h-1.013v-6.094h6.136v0.878H118.727z M122.462,158.292h-1.014v-6.094h1.014V158.292z
	 M132.614,158.292h-6.368v-6.094h6.137v0.928h-5.169v1.569h3.553v0.914h-3.553v1.805h5.354v0.878H132.614z M141.519,158.292h-5.722
	v-6.094h1.017v5.216h4.705V158.292z M147.47,152.198c1.063,0,1.891,0.321,2.493,0.828c0.6,0.557,0.968,1.298,0.968,2.262
	c0,0.828-0.368,1.619-1.014,2.176c-0.6,0.543-1.338,0.778-2.262,0.778h-4.06v-6.093h3.828v0.049H147.47z M147.701,157.364
	c0.6,0,1.106-0.185,1.523-0.593c0.414-0.42,0.6-0.927,0.6-1.532c0-0.643-0.186-1.199-0.646-1.607
	c-0.417-0.42-0.971-0.605-1.662-0.605h-2.954v4.252h3.139V157.364z M163.48,153.632c-0.921-0.47-1.798-0.691-2.769-0.691
	c-0.599,0-1.105,0.037-1.427,0.186c-0.371,0.136-0.507,0.37-0.507,0.593c0,0.234,0.186,0.47,0.55,0.605
	c0.229,0.087,0.648,0.136,1.242,0.186c0.834,0.037,1.384,0.087,1.668,0.136c0.735,0.087,1.335,0.321,1.706,0.557
	c0.37,0.222,0.556,0.643,0.556,1.149c0,0.643-0.327,1.149-0.834,1.52c-0.55,0.371-1.384,0.557-2.447,0.557
	c-1.563,0-2.769-0.371-3.596-1.063l0.55-0.741c0.97,0.605,1.989,0.841,3.09,0.841c0.691,0,1.248-0.1,1.668-0.334
	c0.408-0.173,0.55-0.457,0.55-0.778c0-0.421-0.229-0.643-0.735-0.742c-0.234-0.037-0.97-0.136-2.125-0.186
	c-1.014-0.037-1.706-0.185-2.126-0.407c-0.457-0.235-0.692-0.655-0.692-1.199c0-0.556,0.235-1.014,0.791-1.347
	c0.55-0.358,1.285-0.507,2.262-0.507c1.285,0,2.397,0.321,3.318,0.927L163.48,153.632z M173.541,153.076h-2.911v5.216h-1.013v-5.216
	h-2.904v-0.927h6.871v0.927H173.541z M176.445,158.292h-1.292v-0.928h1.292V158.292z M189.78,158.292h-5.722v-6.094h1.02v5.216
	h4.702V158.292z M199.655,155.239c0,1.025-0.414,1.804-1.242,2.409c-0.692,0.544-1.619,0.779-2.633,0.779
	c-1.112,0-1.94-0.235-2.725-0.779c-0.785-0.605-1.242-1.384-1.242-2.409c0-1.014,0.414-1.792,1.242-2.398
	c0.735-0.556,1.612-0.778,2.632-0.778c1.058,0,1.935,0.223,2.627,0.778C199.241,153.447,199.655,154.226,199.655,155.239z
	 M198.593,155.239c0-0.692-0.321-1.286-0.921-1.743c-0.507-0.42-1.156-0.556-1.94-0.556c-0.828,0-1.569,0.186-2.027,0.643
	c-0.556,0.457-0.784,1.014-0.784,1.656c0,0.691,0.229,1.248,0.784,1.668c0.507,0.408,1.199,0.643,2.12,0.643
	c0.834,0,1.569-0.186,2.033-0.643C198.314,156.438,198.593,155.894,198.593,155.239z M209.808,158.292h-1.248l-4.659-4.981v4.981
	h-1.014v-6.094h1.242l4.666,4.981v-4.981h1.013V158.292z M217.187,152.198c1.063,0,1.891,0.321,2.496,0.828
	c0.594,0.557,0.964,1.298,0.964,2.262c0,0.828-0.37,1.619-1.013,2.176c-0.6,0.543-1.335,0.778-2.262,0.778h-4.061v-6.093h3.831
	v0.049H217.187z M217.465,157.364c0.599,0,1.105-0.185,1.525-0.593c0.408-0.42,0.594-0.927,0.594-1.532
	c0-0.643-0.186-1.199-0.643-1.607c-0.414-0.42-0.971-0.605-1.662-0.605h-2.948v4.252h3.134V157.364L217.465,157.364z
	 M231.307,155.239c0,1.025-0.414,1.804-1.242,2.409c-0.692,0.544-1.619,0.779-2.633,0.779c-1.112,0-1.94-0.235-2.719-0.779
	c-0.791-0.605-1.248-1.384-1.248-2.409c0-1.014,0.414-1.792,1.248-2.398c0.735-0.556,1.606-0.778,2.626-0.778
	c1.057,0,1.935,0.223,2.627,0.778C230.893,153.447,231.307,154.226,231.307,155.239z M230.25,155.239
	c0-0.692-0.328-1.286-0.928-1.743c-0.506-0.42-1.149-0.556-1.939-0.556c-0.828,0-1.57,0.186-2.027,0.643
	c-0.556,0.457-0.785,1.014-0.785,1.656c0,0.691,0.229,1.248,0.785,1.668c0.507,0.408,1.199,0.643,2.126,0.643
	c0.828,0,1.563-0.186,2.026-0.643C230.015,156.438,230.25,155.894,230.25,155.239z M241.459,158.292h-1.248l-4.659-4.981v4.981
	h-1.014v-6.094h1.248l4.659,4.981v-4.981h1.014V158.292z M257.791,152.198l-1.983,6.094h-1.291l-1.526-5.13l-1.521,5.13h-1.291
	l-1.984-6.094h1.106l1.569,5.117l1.526-5.117h1.285l1.526,5.117l1.563-5.117H257.791z M261.759,158.292h-1.014v-5.13l-1.02,0.421
	v-0.828c0.371-0.099,0.692-0.321,1.02-0.557h1.014V158.292z"/>
</svg>
