<?xml version="1.0" encoding="utf-8"?>
<!-- Generator: Adobe Illustrator 15.1.0, SVG Export Plug-In . SVG Version: 6.00 Build 0)  -->
<!DOCTYPE svg PUBLIC "-//W3C//DTD SVG 1.1//EN" "http://www.w3.org/Graphics/SVG/1.1/DTD/svg11.dtd">
<svg version="1.1" id="Layer_1" xmlns="http://www.w3.org/2000/svg" xmlns:xlink="http://www.w3.org/1999/xlink" x="0px" y="0px"
	 width="40.1px" height="2.793px" viewBox="0 0 40.1 2.793" enable-background="new 0 0 40.1 2.793" xml:space="preserve">
<g>
	
		<linearGradient id="SVGID_1_" gradientUnits="userSpaceOnUse" x1="4464.4951" y1="-3240.1035" x2="5014.4316" y2="-3240.1035" gradientTransform="matrix(0.0729 0 0 -0.0729 -325.5363 -234.8649)">
		<stop  offset="0" style="stop-color:#E5AF75"/>
		<stop  offset="0.1837" style="stop-color:#E2B07A"/>
		<stop  offset="0.35" style="stop-color:#A8673E"/>
		<stop  offset="0.5562" style="stop-color:#B88151"/>
		<stop  offset="0.6888" style="stop-color:#D29659"/>
		<stop  offset="0.8316" style="stop-color:#A8673E"/>
		<stop  offset="1" style="stop-color:#A8673E"/>
	</linearGradient>
	<path fill="url(#SVGID_1_)" d="M0.018,2.398l0.197-0.203c0.043-0.037,0.08-0.029,0.117,0.007c0.051,0.051,0.124,0.124,0.255,0.124
		c0.153,0,0.307-0.124,0.307-0.387V0.124c0-0.037,0.029-0.073,0.073-0.073H1.33c0.043,0,0.073,0.037,0.073,0.073v1.815
		c0,0.532-0.357,0.846-0.81,0.846c-0.335,0-0.518-0.197-0.583-0.284C-0.004,2.465-0.004,2.428,0.018,2.398z M2.453,2.64l1.196-2.596
		C3.663,0.022,3.678,0,3.714,0h0.037c0.036,0,0.051,0.022,0.065,0.043L5.005,2.64C5.027,2.69,4.998,2.742,4.939,2.742H4.604
		c-0.059,0-0.087-0.022-0.109-0.081l-0.19-0.415H3.153L2.963,2.661C2.949,2.697,2.912,2.742,2.854,2.742H2.519
		C2.46,2.734,2.431,2.684,2.453,2.64z M4.115,1.815L3.729,0.97H3.714L3.335,1.815H4.115z M7.302,0c0.386,0,0.671,0.124,0.933,0.357
		c0.037,0.029,0.037,0.08,0.007,0.109l-0.233,0.24c-0.029,0.029-0.065,0.029-0.095,0c-0.16-0.146-0.379-0.226-0.59-0.226
		c-0.496,0-0.86,0.416-0.86,0.897c0,0.481,0.372,0.89,0.86,0.89c0.233,0,0.43-0.088,0.59-0.219c0.029-0.029,0.073-0.021,0.095,0
		L8.25,2.297c0.029,0.029,0.022,0.08-0.007,0.102C7.98,2.654,7.652,2.771,7.309,2.771c-0.773,0-1.393-0.612-1.393-1.385
		C5.917,0.62,6.536,0,7.302,0z M9.511,0.131c0-0.051,0.036-0.095,0.095-0.095h0.335c0.051,0,0.095,0.044,0.095,0.095v1.042
		l0.97-1.094c0.015-0.022,0.037-0.037,0.073-0.037h0.387c0.073,0,0.109,0.081,0.058,0.139l-1.006,1.13l1.079,1.291
		c0.036,0.051,0.007,0.131-0.073,0.131h-0.423c-0.036,0-0.058-0.015-0.073-0.029l-1.006-1.24V2.64c0,0.051-0.044,0.095-0.095,0.095
		H9.591c-0.051,0-0.095-0.044-0.095-0.095V0.131H9.511z M12.646,2.362l0.139-0.241c0.029-0.051,0.095-0.051,0.131-0.028
		c0.021,0.015,0.328,0.24,0.583,0.24c0.197,0,0.35-0.131,0.35-0.299c0-0.197-0.167-0.328-0.488-0.459
		c-0.365-0.146-0.722-0.379-0.722-0.831c0-0.343,0.255-0.736,0.868-0.736c0.394,0,0.693,0.197,0.773,0.255
		c0.037,0.022,0.051,0.088,0.022,0.124l-0.146,0.219c-0.029,0.044-0.087,0.08-0.131,0.044c-0.029-0.022-0.321-0.211-0.532-0.211
		c-0.219,0-0.335,0.146-0.335,0.27c0,0.183,0.146,0.306,0.452,0.43c0.372,0.153,0.802,0.372,0.802,0.868
		c0,0.394-0.343,0.766-0.882,0.766c-0.489,0-0.773-0.226-0.846-0.299C12.632,2.442,12.617,2.421,12.646,2.362z M16.854,0
		c0.773,0,1.385,0.62,1.385,1.393c0,0.773-0.62,1.385-1.385,1.385s-1.386-0.611-1.386-1.385C15.476,0.62,16.088,0,16.854,0z
		 M16.854,2.275c0.488,0,0.882-0.395,0.882-0.883c0-0.489-0.401-0.89-0.882-0.89c-0.481,0-0.882,0.401-0.882,0.89
		S16.373,2.275,16.854,2.275z M19.515,0.073C19.515,0.036,19.552,0,19.588,0h0.095l1.604,1.699h0.007V0.109
		c0-0.037,0.029-0.073,0.073-0.073h0.357c0.036,0,0.073,0.037,0.073,0.073v2.596c0,0.037-0.037,0.072-0.073,0.072H21.63
		l-1.611-1.764h-0.007v1.655c0,0.037-0.029,0.074-0.073,0.074h-0.35c-0.037,0-0.073-0.037-0.073-0.074V0.073z M24.89,0.117
		c0-0.037,0.029-0.073,0.072-0.073h0.883c0.459,0,0.809,0.307,0.809,0.715c0,0.299-0.24,0.525-0.422,0.612
		c0.203,0.066,0.502,0.277,0.502,0.627c0,0.43-0.371,0.744-0.838,0.744h-0.934c-0.043,0-0.072-0.037-0.072-0.074V0.117L24.89,0.117z
		 M25.794,1.174c0.196,0,0.328-0.153,0.328-0.35s-0.132-0.328-0.328-0.328h-0.416v0.671h0.416V1.174z M25.852,2.282
		c0.19,0,0.351-0.153,0.351-0.351c0-0.189-0.189-0.335-0.395-0.335h-0.422v0.686H25.852z M29.228,0c0.773,0,1.386,0.62,1.386,1.393
		c0,0.773-0.62,1.385-1.386,1.385c-0.772,0-1.385-0.611-1.385-1.385C27.843,0.62,28.455,0,29.228,0z M29.228,2.275
		c0.488,0,0.89-0.395,0.89-0.883c0-0.489-0.401-0.89-0.89-0.89s-0.882,0.401-0.882,0.89S28.739,2.275,29.228,2.275z M32.414,1.356
		l-0.772-1.203c-0.029-0.051,0-0.109,0.065-0.109h0.444c0.029,0,0.051,0.022,0.059,0.037l0.496,0.817h0.008l0.502-0.817
		c0.008-0.015,0.029-0.037,0.059-0.037h0.445c0.065,0,0.095,0.059,0.065,0.109l-0.772,1.203l0.802,1.277
		c0.028,0.051,0,0.109-0.065,0.109h-0.416c-0.029,0-0.059-0.022-0.065-0.037l-0.554-0.882h-0.016l-0.539,0.882
		c-0.015,0.015-0.037,0.037-0.066,0.037h-0.415c-0.073,0-0.103-0.059-0.073-0.109L32.414,1.356z M35.054,0.117
		c0-0.037,0.029-0.073,0.073-0.073h1.567c0.044,0,0.073,0.037,0.073,0.073V0.43c0,0.036-0.029,0.073-0.073,0.073h-1.137v0.634h0.947
		c0.037,0,0.072,0.037,0.072,0.073v0.321c0,0.043-0.035,0.073-0.072,0.073h-0.947v0.671h1.137c0.044,0,0.073,0.036,0.073,0.072
		v0.313c0,0.036-0.029,0.073-0.073,0.073h-1.567c-0.044,0-0.073-0.037-0.073-0.073V0.117z M38.087,0.117
		c0-0.037,0.029-0.073,0.073-0.073h1.101c0.46,0,0.839,0.372,0.839,0.832c0,0.357-0.233,0.642-0.569,0.78l0.525,0.978
		c0.029,0.051,0,0.109-0.065,0.109h-0.401c-0.036,0-0.051-0.022-0.059-0.037l-0.51-1.021h-0.43v0.984
		c0,0.037-0.037,0.074-0.073,0.074H38.16c-0.044,0-0.073-0.037-0.073-0.074V0.117L38.087,0.117z M39.225,1.269
		c0.204,0,0.38-0.175,0.38-0.394c0-0.204-0.176-0.372-0.38-0.372h-0.627v0.766H39.225z"/>
	<g>
		<g>
			
				<linearGradient id="SVGID_2_" gradientUnits="userSpaceOnUse" x1="4464.4951" y1="-3240.5557" x2="4483.7871" y2="-3240.5557" gradientTransform="matrix(0.0729 0 0 -0.0729 -325.5363 -234.8649)">
				<stop  offset="0.0051" style="stop-color:#EBB881;stop-opacity:0"/>
				<stop  offset="0.4602" style="stop-color:#E7B47C;stop-opacity:0.0867"/>
				<stop  offset="0.7895" style="stop-color:#A47F58;stop-opacity:0.6439"/>
				<stop  offset="1" style="stop-color:#856847"/>
			</linearGradient>
			<path fill="url(#SVGID_2_)" d="M0.018,2.406l0.197-0.204c0.043-0.036,0.08-0.029,0.117,0.007C0.382,2.26,0.455,2.333,0.586,2.333
				c0.153,0,0.307-0.124,0.307-0.386V0.131c0-0.037,0.029-0.073,0.073-0.073H1.33c0.043,0,0.073,0.037,0.073,0.073v1.816
				c0,0.531-0.357,0.846-0.81,0.846c-0.335,0-0.518-0.197-0.583-0.285C-0.004,2.472-0.004,2.436,0.018,2.406z"/>
		</g>
		
			<linearGradient id="SVGID_3_" gradientUnits="userSpaceOnUse" x1="4498.0332" y1="-3239.9063" x2="4533.2744" y2="-3239.9063" gradientTransform="matrix(0.0729 0 0 -0.0729 -325.5363 -234.8649)">
			<stop  offset="0.0051" style="stop-color:#EBB881;stop-opacity:0"/>
			<stop  offset="0.4602" style="stop-color:#E7B47C;stop-opacity:0.0867"/>
			<stop  offset="0.7895" style="stop-color:#A47F58;stop-opacity:0.6439"/>
			<stop  offset="1" style="stop-color:#856847"/>
		</linearGradient>
		<path fill="url(#SVGID_3_)" d="M5.005,2.646L3.816,0.051C3.802,0.029,3.787,0.007,3.75,0.007H3.714
			c-0.037,0-0.051,0.022-0.066,0.043L2.453,2.646C2.431,2.697,2.46,2.749,2.519,2.749h0.335c0.058,0,0.095-0.036,0.109-0.081
			l0.189-0.415h1.152l0.19,0.415C4.523,2.72,4.545,2.749,4.604,2.749h0.335C4.998,2.742,5.034,2.697,5.005,2.646z M3.342,1.823
			l0.379-0.846h0.015l0.386,0.846H3.342z"/>
		<g>
			
				<linearGradient id="SVGID_4_" gradientUnits="userSpaceOnUse" x1="4545.5889" y1="-3240.1006" x2="4577.8408" y2="-3240.1006" gradientTransform="matrix(0.0729 0 0 -0.0729 -325.5363 -234.8649)">
				<stop  offset="0.0051" style="stop-color:#EBB881;stop-opacity:0"/>
				<stop  offset="0.4602" style="stop-color:#E7B47C;stop-opacity:0.0867"/>
				<stop  offset="0.7895" style="stop-color:#A47F58;stop-opacity:0.6439"/>
				<stop  offset="1" style="stop-color:#856847"/>
			</linearGradient>
			<path fill="url(#SVGID_4_)" d="M7.302,0.007c0.386,0,0.671,0.124,0.933,0.357c0.037,0.029,0.037,0.081,0.007,0.109L8.009,0.714
				c-0.029,0.029-0.065,0.029-0.095,0c-0.16-0.146-0.379-0.226-0.59-0.226c-0.496,0-0.86,0.416-0.86,0.897
				c0,0.481,0.372,0.89,0.86,0.89c0.233,0,0.43-0.088,0.59-0.219c0.029-0.029,0.073-0.022,0.095,0L8.25,2.305
				c0.029,0.028,0.022,0.08-0.007,0.102C7.98,2.661,7.652,2.777,7.309,2.777c-0.773,0-1.393-0.611-1.393-1.385
				C5.917,0.627,6.536,0.007,7.302,0.007z"/>
		</g>
		<g>
			
				<linearGradient id="SVGID_5_" gradientUnits="userSpaceOnUse" x1="4594.9844" y1="-3240.1074" x2="4623.8423" y2="-3240.1074" gradientTransform="matrix(0.0729 0 0 -0.0729 -325.5363 -234.8649)">
				<stop  offset="0.0051" style="stop-color:#EBB881;stop-opacity:0"/>
				<stop  offset="0.4602" style="stop-color:#E7B47C;stop-opacity:0.0867"/>
				<stop  offset="0.7895" style="stop-color:#A47F58;stop-opacity:0.6439"/>
				<stop  offset="1" style="stop-color:#856847"/>
			</linearGradient>
			<path fill="url(#SVGID_5_)" d="M9.511,0.138c0-0.051,0.036-0.095,0.095-0.095h0.335c0.051,0,0.095,0.044,0.095,0.095v1.043
				l0.97-1.094c0.015-0.022,0.037-0.037,0.073-0.037h0.387c0.073,0,0.109,0.08,0.058,0.139l-0.999,1.13l1.08,1.291
				c0.036,0.051,0.007,0.132-0.073,0.132h-0.423c-0.037,0-0.058-0.016-0.073-0.029l-1.006-1.24v1.174
				c0,0.051-0.043,0.096-0.095,0.096H9.599c-0.051,0-0.095-0.045-0.095-0.096V0.138H9.511z"/>
		</g>
		<g>
			
				<linearGradient id="SVGID_6_" gradientUnits="userSpaceOnUse" x1="4637.7275" y1="-3240.1504" x2="4662.0142" y2="-3240.1504" gradientTransform="matrix(0.0729 0 0 -0.0729 -325.5363 -234.8649)">
				<stop  offset="0.0051" style="stop-color:#EBB881;stop-opacity:0"/>
				<stop  offset="0.4602" style="stop-color:#E7B47C;stop-opacity:0.0867"/>
				<stop  offset="0.7895" style="stop-color:#A47F58;stop-opacity:0.6439"/>
				<stop  offset="1" style="stop-color:#856847"/>
			</linearGradient>
			<path fill="url(#SVGID_6_)" d="M12.646,2.369l0.139-0.24c0.029-0.051,0.095-0.051,0.131-0.029c0.021,0.015,0.328,0.24,0.583,0.24
				c0.197,0,0.35-0.131,0.35-0.299c0-0.196-0.167-0.328-0.488-0.459c-0.365-0.146-0.722-0.379-0.722-0.831
				c0-0.343,0.255-0.736,0.868-0.736c0.394,0,0.693,0.197,0.773,0.255c0.037,0.022,0.051,0.088,0.022,0.124l-0.146,0.219
				c-0.029,0.044-0.087,0.08-0.131,0.044c-0.029-0.022-0.321-0.211-0.532-0.211c-0.219,0-0.335,0.146-0.335,0.27
				c0,0.183,0.146,0.306,0.452,0.43c0.372,0.153,0.802,0.372,0.802,0.867c0,0.395-0.343,0.766-0.882,0.766
				c-0.489,0-0.773-0.226-0.846-0.299C12.632,2.449,12.617,2.428,12.646,2.369z"/>
		</g>
		
			<linearGradient id="SVGID_7_" gradientUnits="userSpaceOnUse" x1="4676.708" y1="-3240.1543" x2="4714.7109" y2="-3240.1543" gradientTransform="matrix(0.0729 0 0 -0.0729 -325.5363 -234.8649)">
			<stop  offset="0.0051" style="stop-color:#EBB881;stop-opacity:0"/>
			<stop  offset="0.4602" style="stop-color:#E7B47C;stop-opacity:0.0867"/>
			<stop  offset="0.7895" style="stop-color:#A47F58;stop-opacity:0.6439"/>
			<stop  offset="1" style="stop-color:#856847"/>
		</linearGradient>
		<path fill="url(#SVGID_7_)" d="M16.854,0.007c-0.773,0-1.386,0.62-1.386,1.393s0.613,1.385,1.386,1.385s1.385-0.612,1.385-1.385
			C18.247,0.627,17.627,0.007,16.854,0.007z M16.854,2.282c-0.489,0-0.882-0.394-0.882-0.882c0-0.489,0.394-0.89,0.882-0.89
			c0.488,0,0.882,0.401,0.882,0.89C17.743,1.888,17.342,2.282,16.854,2.282z"/>
		<g>
			
				<linearGradient id="SVGID_8_" gradientUnits="userSpaceOnUse" x1="4732.1777" y1="-3240.1543" x2="4763.4048" y2="-3240.1543" gradientTransform="matrix(0.0729 0 0 -0.0729 -325.5363 -234.8649)">
				<stop  offset="0.0051" style="stop-color:#EBB881;stop-opacity:0"/>
				<stop  offset="0.4602" style="stop-color:#E7B47C;stop-opacity:0.0867"/>
				<stop  offset="0.7895" style="stop-color:#A47F58;stop-opacity:0.6439"/>
				<stop  offset="1" style="stop-color:#856847"/>
			</linearGradient>
			<path fill="url(#SVGID_8_)" d="M19.515,0.08c0-0.037,0.037-0.073,0.073-0.073h0.095l1.604,1.699h0.007V0.117
				c0-0.037,0.029-0.073,0.073-0.073h0.357c0.036,0,0.073,0.037,0.073,0.073v2.596c0,0.036-0.037,0.072-0.073,0.072H21.63
				l-1.611-1.765h-0.007v1.655c0,0.037-0.029,0.073-0.073,0.073h-0.35c-0.037,0-0.073-0.036-0.073-0.073V0.08z"/>
		</g>
		
			<linearGradient id="SVGID_9_" gradientUnits="userSpaceOnUse" x1="4805.8379" y1="-3240.1074" x2="4831.124" y2="-3240.1074" gradientTransform="matrix(0.0729 0 0 -0.0729 -325.5363 -234.8649)">
			<stop  offset="0.0051" style="stop-color:#EBB881;stop-opacity:0"/>
			<stop  offset="0.4602" style="stop-color:#E7B47C;stop-opacity:0.0867"/>
			<stop  offset="0.7895" style="stop-color:#A47F58;stop-opacity:0.6439"/>
			<stop  offset="1" style="stop-color:#856847"/>
		</linearGradient>
		<path fill="url(#SVGID_9_)" d="M26.231,1.371c0.182-0.087,0.422-0.313,0.422-0.612c0-0.401-0.357-0.715-0.809-0.715h-0.883
			c-0.043,0-0.072,0.037-0.072,0.073v2.551c0,0.037,0.029,0.074,0.072,0.074h0.934c0.467,0,0.838-0.314,0.838-0.744
			C26.733,1.648,26.435,1.437,26.231,1.371z M25.386,0.503h0.415c0.196,0,0.328,0.131,0.328,0.328s-0.132,0.35-0.328,0.35h-0.415
			V0.503z M25.852,2.289h-0.466V1.604h0.422c0.197,0,0.395,0.146,0.395,0.335C26.194,2.137,26.042,2.289,25.852,2.289z"/>
		
			<linearGradient id="SVGID_10_" gradientUnits="userSpaceOnUse" x1="4846.3379" y1="-3240.1543" x2="4884.334" y2="-3240.1543" gradientTransform="matrix(0.0729 0 0 -0.0729 -325.5363 -234.8649)">
			<stop  offset="0.0051" style="stop-color:#EBB881;stop-opacity:0"/>
			<stop  offset="0.4602" style="stop-color:#E7B47C;stop-opacity:0.0867"/>
			<stop  offset="0.7895" style="stop-color:#A47F58;stop-opacity:0.6439"/>
			<stop  offset="1" style="stop-color:#856847"/>
		</linearGradient>
		<path fill="url(#SVGID_10_)" d="M29.228,0.007c-0.772,0-1.385,0.62-1.385,1.393s0.612,1.385,1.385,1.385
			c0.773,0,1.386-0.612,1.386-1.385S29.993,0.007,29.228,0.007z M29.228,2.282c-0.488,0-0.882-0.394-0.882-0.882
			c0-0.489,0.394-0.89,0.882-0.89s0.89,0.401,0.89,0.89C30.11,1.888,29.709,2.282,29.228,2.282z"/>
		<g>
			
				<linearGradient id="SVGID_11_" gradientUnits="userSpaceOnUse" x1="4897.8857" y1="-3240.2041" x2="4928.4346" y2="-3240.2041" gradientTransform="matrix(0.0729 0 0 -0.0729 -325.5363 -234.8649)">
				<stop  offset="0.0051" style="stop-color:#EBB881;stop-opacity:0"/>
				<stop  offset="0.4602" style="stop-color:#E7B47C;stop-opacity:0.0867"/>
				<stop  offset="0.7895" style="stop-color:#A47F58;stop-opacity:0.6439"/>
				<stop  offset="1" style="stop-color:#856847"/>
			</linearGradient>
			<path fill="url(#SVGID_11_)" d="M32.414,1.363L31.642,0.16c-0.029-0.051,0-0.109,0.065-0.109h0.444
				c0.029,0,0.051,0.022,0.059,0.037l0.496,0.816h0.008l0.502-0.816c0.008-0.015,0.029-0.037,0.059-0.037h0.445
				c0.065,0,0.095,0.059,0.065,0.109l-0.772,1.203l0.802,1.276c0.028,0.051,0,0.109-0.065,0.109h-0.416
				c-0.029,0-0.059-0.022-0.065-0.036L32.714,1.83h-0.016l-0.539,0.883c-0.015,0.014-0.037,0.036-0.066,0.036h-0.415
				c-0.073,0-0.103-0.059-0.073-0.109L32.414,1.363z"/>
		</g>
		<g>
			
				<linearGradient id="SVGID_12_" gradientUnits="userSpaceOnUse" x1="4945.2314" y1="-3240.1572" x2="4968.7354" y2="-3240.1572" gradientTransform="matrix(0.0729 0 0 -0.0729 -325.5363 -234.8649)">
				<stop  offset="0.0051" style="stop-color:#EBB881;stop-opacity:0"/>
				<stop  offset="0.4602" style="stop-color:#E7B47C;stop-opacity:0.0867"/>
				<stop  offset="0.7895" style="stop-color:#A47F58;stop-opacity:0.6439"/>
				<stop  offset="1" style="stop-color:#856847"/>
			</linearGradient>
			<path fill="url(#SVGID_12_)" d="M35.054,0.124c0-0.037,0.029-0.073,0.073-0.073h1.567c0.044,0,0.073,0.037,0.073,0.073v0.313
				c0,0.036-0.029,0.073-0.073,0.073h-1.137v0.634h0.947c0.037,0,0.072,0.037,0.072,0.073v0.321c0,0.043-0.035,0.073-0.072,0.073
				h-0.947v0.671h1.137c0.044,0,0.073,0.036,0.073,0.073v0.313c0,0.037-0.029,0.074-0.073,0.074h-1.567
				c-0.044,0-0.073-0.037-0.073-0.074V0.124z"/>
		</g>
		
			<linearGradient id="SVGID_13_" gradientUnits="userSpaceOnUse" x1="4986.8291" y1="-3240.1074" x2="5014.4634" y2="-3240.1074" gradientTransform="matrix(0.0729 0 0 -0.0729 -325.5363 -234.8649)">
			<stop  offset="0.0051" style="stop-color:#EBB881;stop-opacity:0"/>
			<stop  offset="0.4602" style="stop-color:#E7B47C;stop-opacity:0.0867"/>
			<stop  offset="0.7895" style="stop-color:#A47F58;stop-opacity:0.6439"/>
			<stop  offset="1" style="stop-color:#856847"/>
		</linearGradient>
		<path fill="url(#SVGID_13_)" d="M39.53,1.655c0.336-0.131,0.569-0.423,0.569-0.78c0-0.459-0.379-0.832-0.839-0.832H38.16
			c-0.044,0-0.073,0.037-0.073,0.073v2.551c0,0.037,0.029,0.074,0.073,0.074h0.357c0.036,0,0.073-0.037,0.073-0.074V1.684h0.43
			l0.51,1.021c0.008,0.015,0.029,0.037,0.059,0.037h0.401c0.065,0,0.095-0.059,0.065-0.109L39.53,1.655z M39.225,1.276h-0.627V0.51
			h0.627c0.204,0,0.38,0.168,0.38,0.372C39.604,1.101,39.429,1.276,39.225,1.276z"/>
	</g>
</g>
</svg>
