<?xml version="1.0" encoding="utf-8"?>
<!-- Generator: Adobe Illustrator 15.1.0, SVG Export Plug-In . SVG Version: 6.00 Build 0)  -->
<!DOCTYPE svg PUBLIC "-//W3C//DTD SVG 1.1//EN" "http://www.w3.org/Graphics/SVG/1.1/DTD/svg11.dtd">
<svg version="1.1" id="Layer_1" xmlns="http://www.w3.org/2000/svg" xmlns:xlink="http://www.w3.org/1999/xlink" x="0px" y="0px"
	 width="23.32px" height="27.77px" viewBox="0 0 23.32 27.77" enable-background="new 0 0 23.32 27.77" xml:space="preserve">
<path fill="#424B4D" d="M11.701,0.577c6.099,0,11.124,4.943,11.124,11.124c0,7.581-11.042,15.49-11.042,15.49
	S0.576,19.365,0.576,11.701C0.576,5.522,5.603,0.577,11.701,0.577 M11.701,15.409c2.145,0,3.955-1.729,3.955-3.956
	c0-2.143-1.729-3.955-3.955-3.955c-2.143,0-3.955,1.729-3.955,3.955C7.745,13.68,9.558,15.409,11.701,15.409 M11.701,0
	C5.274,0,0,5.275,0,11.701c0,7.909,11.289,15.819,11.289,15.819l0.412,0.248l0.412-0.248c0,0,11.206-7.91,11.206-15.819
	C23.402,5.275,18.128,0,11.701,0L11.701,0z M11.701,14.832c-1.813,0-3.378-1.482-3.378-3.378c0-1.813,1.483-3.378,3.378-3.378
	c1.813,0,3.379,1.482,3.379,3.378C15.079,13.35,13.513,14.832,11.701,14.832L11.701,14.832z"/>
</svg>
